<?xml version="1.0" encoding="UTF-8"?><svg xmlns="http://www.w3.org/2000/svg" width="1200" height="450" xmlns:xlink="http://www.w3.org/1999/xlink" viewBox="0 0 1200 450"><defs><style>.cls-1{fill:#003f67;}.cls-2{fill:#fff;}</style></defs><g id="Layer_3"><image width="1808" height="841" transform="translate(-302 -53.5)" xlink:href="bil1.png"/><g><path class="cls-1" d="m741.08,397.92l12.17,7.62c-4.28-2.11-8.35-4.66-12.17-7.62Z"/><path class="cls-2" d="m752.8,406.44c-4.32-2.13-8.47-4.73-12.34-7.73l1.14-1.64,12.17,7.62-.97,1.75Z"/></g><g><path class="cls-1" d="m787.29,412.38l12.47-2.24c-3.97,1.18-8.13,1.94-12.47,2.24Z"/><path class="cls-2" d="m787.35,413.38l-.25-1.98,12.47-2.24.46,1.94c-4.08,1.21-8.35,1.98-12.69,2.28Z"/></g><g><polyline class="cls-1" points="787.17 412.39 787.18 412.4 787.29 412.38"/><polygon class="cls-2" points="786.84 413.48 786.47 413.11 787.17 412.39 786.99 411.42 787.1 411.4 787.27 412.29 787.87 411.68 787.88 411.69 787.27 412.3 787.47 413.36 786.84 413.48"/></g><g><path class="cls-1" d="m799.76,410.14l2.14-.38s.02,0,.02-.02c0-.03,0-.13.01-.29"/><path class="cls-2" d="m799.93,411.12l-.35-1.97,2.14-.38.12.67,1.08.07c0,.13,0,.21,0,.23v.54l-.36.24-.15.17-2.48.44Z"/></g><path class="cls-1" d="m28.44,252.67s31.29,27.65,39.42,33.24c0,0,9.42,52.86,61.28,56.23s80.86-7.64,88.86-25.64l492.06,65.12s30.77,55.96,79.36,46.42h73.76l31.24-24s183.43,8.96,236.01-24.29S28.44,252.67,28.44,252.67Z"/></g><g id="Layer_2"><path class="cls-2" d="m67.16,286.62l-3.12-3.12c-17.2-10.3-44.47-33.42-48.6-50.51-.99-4.11-.58-7.65,1.21-10.52,9.59-15.35,4.96-27.99,4.91-28.11-13.08-30.18-12.16-53.49,3.09-77.89,14.81-23.7,75.93-34.64,80.5-35.43,3.6-2.11,64.3-37,147.2-50.71l-.07-.31c76.56-17.62,153.21-24.64,227.81-20.86,59.69,3.02,118.2,12.93,173.92,29.44,75.94,22.5,131.37,53.39,150.07,66.58l1.25.88-1.32.79c-34.82,20.89-228.25,29.77-236.47,30.14l-.46.02-.31-.33c-42.71-45.28-91.81-76.99-145.95-94.24-44.1-14.05-91.81-18.64-141.78-13.64-97.94,9.81-172.29,53.62-173.03,54.06l-.16.1-.18.03c-.65.11-64.73,11.2-79.32,34.54s-15.73,46.52-2.93,76.07c.23.59,5.08,13.69-5.07,29.93-1.5,2.4-1.82,5.43-.96,8.99,3.62,15,27.62,37.28,47.78,49.32l.19.15,3.21,3.21-1.41,1.41ZM317.72,24.84c36.18,0,70.93,5.25,103.71,15.69,54.33,17.31,103.61,49.09,146.48,94.44,10.61-.49,196.63-9.45,233.71-29.07-19.8-13.6-74.25-43.5-148.27-65.41-55.56-16.45-113.92-26.32-173.43-29.34-67.4-3.41-136.47,2.02-205.64,16.13,1.51-.17,3.04-.33,4.56-.48,13.12-1.31,26.09-1.97,38.88-1.97Z"/><path class="cls-2" d="m560.67,141.08l-3.48-1.13c-10.19-3.32-40.73-7.27-62.81-9.96l.24-1.99c31.31,3.81,50.15,6.66,59.7,9.06-9.77-10.17-48.51-47.88-108.16-73.17-40.58-17.2-82.75-25.38-125.36-24.29-53.02,1.35-106.87,17.11-160.06,46.86.78,1.82,3.41,6.63,10.17,9.63,3.08,1.37,51.21,5.64,106.95,10.58,54.69,4.85,122.76,10.89,178.01,16.75l-.21,1.99c-55.23-5.86-123.28-11.9-177.97-16.75-66.55-5.9-104.35-9.31-107.58-10.75-9.32-4.14-11.47-11.33-11.56-11.64l-.22-.76.69-.39c53.75-30.19,108.18-46.18,161.79-47.53,42.9-1.08,85.37,7.16,126.21,24.49,69.53,29.5,110.83,75.79,111.23,76.26l2.42,2.74Z"/><path class="cls-2" d="m321.4,316.78c-.97-10.47.37-21.84,1.92-35.01,1.36-11.57,2.91-24.68,3.18-39.79.97-54.56,2.38-126.83,2.44-129.61-2.51-18.74,11.63-71.56,12.24-73.81l1.93.52c-.15.55-14.68,54.82-12.18,73.09v.08s0,.08,0,.08c-.01.74-1.45,74.32-2.44,129.68-.27,15.21-1.82,28.38-3.19,39.99-1.54,13.05-2.87,24.33-1.92,34.59l-1.99.18Z"/><path class="cls-2" d="m1105.72,256.88c-121.62-75.24-501.38-112.52-544.28-116.52-2.64-.25-4.02-.37-4.02-.37l.18-1.99s1.39.12,4.03.37c42.95,4.01,423.14,41.33,545.15,116.81l-1.05,1.7Z"/><path class="cls-2" d="m1052.81,273.16c-37.26,0-125.32-20.21-129.54-21.18l.45-1.95c1.17.27,117.02,26.86,140.5,20.01l.56,1.92c-2.85.83-6.95,1.2-11.97,1.2Z"/><path class="cls-2" d="m1085.85,329.35c-10.12,0-19.71-.69-21.9-2.13-2.55-1.67-6.97-11.39-9.78-19.82-2.29-6.89-5.67-19.27-2.55-24.89,5.08-9.14,23.59-19.92,24.37-20.38l.28-.11,81.73-18.77-.06,1.32s-.23,4.76-1.03,11.28c-.1.87-2.51,21.58-8.53,32.63h0c-8.59,15.75-30.26,35.33-36.43,38.42-3.23,1.61-14.98,2.45-26.09,2.45Zm-8.98-65.41c-1.66.98-18.9,11.27-23.5,19.54-4.7,8.46,8.34,39.88,11.67,42.06,3.44,2.25,39.84,2.64,46-.44,5.84-2.92,27.3-22.43,35.57-37.58,5.84-10.7,8.28-31.69,8.3-31.9.54-4.42.82-8,.94-9.82l-78.99,18.15Z"/><path class="cls-2" d="m1089.38,342.02c-1.24,0-2.5,0-3.76-.02-17.19-.23-36.93-2.23-42.28-6.2-3.55-2.64-5.78-10.17-8.61-19.71-5.08-17.19-11.41-38.59-28.38-41.1-71.97-10.66-111.29-22.21-113.7-33.4-.74-3.43,2.18-5.35,2.3-5.43l.23-.15h.27c53.46-1.96,175.34,23.76,181.05,24.97,99.38-18.94,109.03-29.57,109.62-32.38.11-.54-.19-.78-.2-.78l-.17-.15c-23.85-26.12-81.81-63.76-222.46-94.69-84.22-18.52-159.15-25.91-159.9-25.99l.19-1.99c.75.07,75.79,7.47,160.12,26.02,49.55,10.9,92.57,23.46,127.87,37.33,44.16,17.35,76.32,36.83,95.59,57.91.52.42,1.2,1.38.91,2.75-1.27,6.06-21.63,16.87-111.4,33.97l-.2.04-.2-.04c-1.26-.27-126.04-26.83-180.44-24.99-.47.39-1.61,1.52-1.23,3.21,1.05,4.73,14.08,17.3,112.03,31.82,18.23,2.7,25.04,25.71,30.01,42.51,2.61,8.82,4.86,16.44,7.88,18.67,4.25,3.16,21.16,5.54,41.11,5.8,21.59.28,40.14-1.98,48.43-5.9,18.4-8.72,24.45-22.35,24.51-22.49l1.84.79c-.25.59-6.37,14.45-25.49,23.51-8.18,3.87-25.03,6.12-45.55,6.12Z"/><path class="cls-2" d="m955.5,407l-76.01-1.53,11.33-26.44,1.84.79-10.16,23.71,73.02,1.47c52.96-.28,125.68-4.8,171.23-24.69,27.18-11.87,31.76-23.74,31.8-23.86l1.88.67c-.18.51-4.71,12.6-32.42,24.81-25.29,11.15-75.75,24.55-172.52,25.06Z"/><path class="cls-2" d="m575.88,348.68l-1.95-.46c.06-.23,5.56-23.55,5.56-41.22.04-1.33,3.89-130.44-3.86-148.48l-14.89-18.53,1.56-1.25,15.11,18.85c8,18,4.25,144.08,4.09,149.44,0,17.88-5.56,41.42-5.62,41.65Z"/><path class="cls-2" d="m457.37,56.43l-.75-1.86c65.82-26.47,167.62-23.83,168.65-23.81l-.06,2c-1.01-.03-102.41-2.65-167.84,23.66Z"/><rect class="cls-2" x="1055.42" y="277.97" width="2" height="32.81"/><rect class="cls-2" x="1137.42" y="248.5" width="2" height="52.27"/><rect class="cls-2" x="1141.5" y="248.5" width="2" height="47"/><rect class="cls-2" x="1145.5" y="247.5" width="2" height="41"/><rect class="cls-2" x="1133.74" y="262.25" width="34.51" height="2" transform="translate(854.16 1406.05) rotate(-88.32)"/><rect class="cls-2" x="1061.42" y="271.97" width="2" height="51.53"/><rect class="cls-2" x="1066.42" y="268.97" width="2" height="58.53"/><rect class="cls-2" x="1125.42" y="251.97" width="2" height="62.53"/><rect class="cls-2" x="1129.42" y="250.97" width="2" height="58.53"/><rect class="cls-2" x="1133.42" y="249.5" width="2" height="56"/><rect class="cls-2" x="1120.42" y="252.97" width="2" height="65.53"/><rect class="cls-2" x="1072.42" y="264.5" width="2" height="63"/><rect class="cls-2" x="1077.5" y="262.5" width="2" height="66"/><rect class="cls-2" x="1115.5" y="253.5" width="2" height="68"/><rect class="cls-2" x="1082.5" y="261.5" width="2" height="67"/><rect class="cls-2" x="1087.5" y="260.51" width="2" height="67.99"/><rect class="cls-2" x="1092.5" y="259.5" width="2" height="68"/><rect class="cls-2" x="1096.5" y="258.56" width="2" height="69.94"/><rect class="cls-2" x="1101.5" y="257.5" width="2" height="70"/><rect class="cls-2" x="1105.5" y="256.5" width="2" height="71"/><rect class="cls-2" x="1110.5" y="255.5" width="2" height="70"/><path class="cls-2" d="m708.71,320.6l-1.99-.16c.21-3.27.58-6.5,1.1-9.6l1.98.29-.02.13c-.42,3.23-.8,6.55-1.07,9.34Z"/><path class="cls-2" d="m718.54,373.99c-2.4-4.25-4.48-8.78-6.19-13.48l1.85-.76,6.12,13.33-1.78.91Z"/><path class="cls-2" d="m716.09,289.5l-1.83-.81c2.59-6.06,5.8-11.76,9.56-16.96l1.67,1.11-.19.32c-5.64,9.23-8.12,13.99-9.2,16.35Z"/><path class="cls-2" d="m752.39,406.9c-4.32-2.13-8.47-4.73-12.34-7.73l1.14-1.64,12.17,7.62-.97,1.74Z"/><path class="cls-2" d="m743.02,401.46l-3.04-2.35c-8.61-6.65-15.82-15.09-21.43-25.09l-3.55-6.32,4.63,4.63c8.34-4.43,62.62-33.44,71.15-42.38l1.48,1.35c-34.98,39.85-52,63.68-50.74,66.64l1.51,3.53Zm-22.2-27.5c5.05,8.76,11.38,16.27,18.84,22.34.95-3.33,5.44-11.29,22.66-32.63,7.86-9.75,16.13-19.47,21.79-26.05-17.29,11.71-53.4,31.08-63.29,36.33Z"/><path class="cls-2" d="m789.21,328h-.15c-6.71-.65-65.97-6.56-80.77-16.16l.49-.75-.98-.08v-.56l.09-.06c1.16-6.9,3.07-13.63,5.67-20.02l1.88.67c.02-.08.02-.14.01-.16.74,2.77,26.76,15.35,73.53,33.18l.64.25v.54s.62,2.11.62,2.11v1l-1.03.04Zm-79.31-17.52c12.19,7.29,53.88,13.01,77.95,15.38l-.03-.1c-3.09-1.18-20.55-7.9-37.63-15.1-24.48-10.32-32.82-15.12-35.54-17.62-2.13,5.61-3.73,11.46-4.75,17.44Z"/><path class="cls-2" d="m714.28,365.79l-1.94-5.3c-3.4-9.3-5.33-19.17-5.75-29.33l-.1-2.33,1.75,1.54c2.45,1.33,34.35.28,81.22-2.73l1.04-.07.28.83c.14.52-.12,1.04-.61,1.26-2.69.91-63.72,21.41-75.91,30.97v5.17Zm-5.63-33.39c.49,9.02,2.21,17.79,5.11,26.11,11.43-8.19,52.25-22.68,69.04-28.46-31.31,1.95-65.87,3.66-74.14,2.34Zm81.23-2.79h-.09s.06,0,.09,0Z"/><path class="cls-2" d="m792.38,317.72h-.52l-.46-.41-.09-.18-34.75-71.95,1-.4c7.99-3.18,16.38-4.79,24.93-4.79h0s.03,0,.03,0v1h.13s.83-.13.83-.13l12.51,75.03v.5l-.5.51-3.12.81Zm-33.07-71.46l33.46,69.29,1.09-.28-12.22-73.26c-7.66.1-15.16,1.53-22.34,4.25Z"/><path class="cls-2" d="m787.03,414.03l-.44-.17c-1.34.09-2.71.14-4.09.14-10.46,0-20.58-2.39-30.09-7.09l-3.83-1.9h3.72c14.43-23.27,41.3-68.02,41.7-74.07v-.63s5.2-2.06,5.2-2.06l.99.97-.26.57c-.67,2.43-10.85,39.89-12.17,81.98l1.41-.1-2.14,2.36Zm-32.74-8.43c8.94,4.25,18.43,6.4,28.21,6.4,1.09,0,2.18-.03,3.26-.09,1.17-38.09,9.58-72.47,11.77-80.84l-1.63.65c-2.22,9.98-35.51,64.05-41.6,73.88Z"/><path class="cls-2" d="m786.94,413.84l-.25-1.98,12.47-2.24.46,1.94c-4.08,1.21-8.35,1.98-12.69,2.28Z"/><path class="cls-2" d="m800.46,411.32l.05-1.44c.1-2.92,2.35-71.62-.63-82.29l-.23-.81,1.57-.77.58.87c.23.49,22.84,49.06,30.49,60.12l.41.59-.43.58c-8.21,10.88-18.73,18.73-30.43,22.68l-1.37.46Zm2.25-77.78c1.52,18.75.18,64.51-.16,74.94,10.57-3.89,20.1-11.1,27.67-20.94-6.38-9.65-21.35-40.93-27.52-54Z"/><path class="cls-2" d="m798.07,317.79l-1.27-.5-.02-.77v-.08s10.98-71.41,10.98-71.41l1.2.54c8.03,3.64,15.2,9,21.3,15.94l.48.54-32.2,55.27-.47.47Zm11.27-69.84l-9.79,63.72,28.73-49.38c-5.5-6.12-11.86-10.94-18.95-14.34Z"/><path class="cls-2" d="m800.7,322.04l-.81-1.58.88-.67c7.53-6.61,32.74-28.86,40.93-37.58l1.05-1.12.6,1.41c2.79,6.52,4.89,13.6,6.25,21.02l.15.83-49.05,17.68Zm41.38-37.35c-7.97,8.19-26.83,24.99-36.39,33.42l41.77-15.06c-1.24-6.45-3.04-12.62-5.38-18.36Z"/><path class="cls-2" d="m843.84,367.25l-43.66-41.64.51-1.29h.77s.08,0,.08,0c1.38.21,34.06,5.22,48.82,4.72l1.08-.04-.04,1.08c-.49,12.66-2.85,24.69-7.01,35.75l-.53,1.41Zm-39.56-40.49l38.75,36.95c3.65-10.16,5.77-21.12,6.32-32.64-12.76.21-36.58-3.07-45.06-4.31Z"/><path class="cls-2" d="m783,430c-48.25,0-87.5-46.43-87.5-103.5s39.25-103.5,87.5-103.5,87.5,46.43,87.5,103.5-39.25,103.5-87.5,103.5Zm0-205c-47.14,0-85.5,45.53-85.5,101.5s38.36,101.5,85.5,101.5,85.5-45.53,85.5-101.5-38.36-101.5-85.5-101.5Z"/><path class="cls-2" d="m795,332c-4.14,0-7.5-3.81-7.5-8.5s3.36-8.5,7.5-8.5,7.5,3.81,7.5,8.5-3.36,8.5-7.5,8.5Zm0-15c-3.03,0-5.5,2.92-5.5,6.5s2.47,6.5,5.5,6.5,5.5-2.92,5.5-6.5-2.47-6.5-5.5-6.5Z"/><path class="cls-2" d="m786.75,413.85h-.41l-.6-.59v-.43c1.06-38.47,9.58-73.33,11.78-81.76l-1.63.65c-2.27,10.25-37.3,66.95-42.03,74.57v.71h-1.42s-.22-.2-.22-.2l-12.33-7.75-.29-.29v-.22c-.58-1.5-.84-5.66,22.71-34.86,7.86-9.75,16.13-19.47,21.79-26.05-17.75,12.02-55.33,32.11-64.02,36.72l-.38.2h-.66l-.49-.48-.07-.23-6.01-13.09-.17-.17v-1.43s.64,0,.64,0c10.13-8.06,52.64-23.16,69.87-29.08-34.68,2.16-73.34,4.02-75.86,1.81l-.32-.28-.02-.43c-.06-1.38-.09-2.79-.09-4.16,0-2.04.06-4.09.19-6.1l-.02-.02.07-.65c.05-.52.11-1.03.15-1.53l.02-.19c.02-.25.04-.46.07-.66.17-1.57.34-3.02.48-4.2l.06-.49c.02-.17.04-.35.06-.51,0-.04.01-.11.03-.19,0-.03,0-.1.02-.2,0-.08.02-.16.04-.24,0-.01,0-.09.01-.16l.07-.6c.03-.16.03-.23.04-.29v-.52s.48-.3.48-.3c.3-.19.69-.2,1.01-.04l.1.06c11.47,7.44,54.04,13.3,78.47,15.7l-.03-.1c-3.09-1.18-20.55-7.9-37.63-15.1-36.72-15.48-37.12-18.54-36.71-20.06v-.27l.14-.16c.11-.27.22-.56.36-.87.05-.13.13-.31.22-.49l.07-.15c1.11-2.42,3.62-7.25,9.31-16.56l.12-.19v-.3l.34-.19c8.88-12.24,20.47-21.45,33.53-26.63l.87-.34,34.34,71.1,1.09-.28-12.37-74.15v-1.08l1.03-.03c.23,0,.6,0,1.14.01h.5c.06,0,.12.01.18.02.34,0,.63.01.94.04.25-.02.55.02.85.04l2.03.14c.37.03.76.06,1.16.1.54.06,1.07.12,1.63.18.96.12,1.94.26,2.97.43,5.26.9,10.32,2.46,15.05,4.62l.69.31-10.11,65.79,29.8-51.2.92,1.04c5.28,5.99,9.67,13.06,13.07,21l.26.6-.45.48c-7.21,7.68-27.44,25.7-37.45,34.53l43.68-15.75.21,1.16c1.26,6.84,1.91,14.06,1.91,21.47,0,1.86-.04,3.52-.11,5.09l-.04.92-.92.03c-12.47.43-37.42-3.01-46.14-4.28l40.33,38.46-.23.62c-3.13,8.32-7.2,15.83-12.12,22.34l-.83,1.1-.79-1.14c-6.13-8.87-21.62-41.25-27.92-54.6,1.61,19.85,0,69.99-.2,76.41l-.02.69-.65.22c-.74.26-1.47.49-2.22.71l-.1.02-12.47,2.24c-.1.03-.23.03-.3.03Zm-.03-2s-.05,0-.09.02l.09-.02Zm13.21-82.06c-.67,2.42-10.83,39.83-12.17,81.88l11.35-2.04c.48-.14.95-.29,1.42-.44.25-7.81,2.2-71.37-.66-81.6l-.23-.81,1.16-.57-.62-.59.51-1.29h.77s.08,0,.08,0c1.36.21,32.77,5,47.9,4.74.05-1.26.07-2.6.07-4.07,0-6.87-.56-13.57-1.67-19.95l-47.13,16.99-.81-1.58.88-.67c7.4-6.5,31.85-28.08,40.48-37.1-3.08-7.04-6.96-13.36-11.56-18.81l-31.04,53.34-.56.56-1.27-.5-.02-.77v-.08s10.67-69.36,10.67-69.36c-4.38-1.93-9.04-3.33-13.87-4.16-1-.17-1.96-.3-2.87-.42-.54-.06-1.08-.12-1.61-.18-.37-.04-.75-.07-1.11-.1l-1.99-.14c-.27-.02-.53-.04-.79-.04-.42-.03-.71-.02-.99-.04h-.55s12.32,73.88,12.32,73.88v.5l-.5.51-3.25.81h-.39l-.46-.41-.09-.18-33.87-70.14c-12.33,5.09-23.29,13.9-31.75,25.53v.1l-.23.22-.18.3c-5.64,9.23-8.12,13.99-9.2,16.35l-.07.15c-.07.15-.14.3-.19.44-.14.33-.26.61-.36.87,1.11,2.9,27.09,15.42,73.51,33.12l.64.25v.54s.62,2.11.62,2.11v.63l.27-.02.28.83c.14.52-.12,1.04-.61,1.26-2.68.9-62.95,21.16-75.67,30.78l5.39,11.73c9.19-4.89,62.43-33.39,70.87-42.24l1.48,1.35c-34.18,38.94-51.22,62.59-50.8,66.4l11.08,6.94c14.48-23.38,41.06-67.67,41.47-73.69v-.63s5.2-2.06,5.2-2.06l.99.97-.26.57Zm2.09-2.42c2.32,4.97,21.65,46.24,29.48,58.46,4.31-5.92,7.92-12.67,10.76-20.08l-40.25-38.38Zm-93.46,3.12c4.07,1.12,34.39.1,78.48-2.69-12.05-1.21-61.9-6.66-77.44-15.18l-.04.26c-.02.18-.04.34-.06.52l-.06.48c-.14,1.18-.31,2.63-.48,4.19-.03.25-.06.49-.08.74l-.02.21c-.03.37-.07.75-.11,1.12l.09.09-.15.49c-.13,2.11-.2,4.2-.2,6.28,0,1.15.02,2.32.07,3.49Zm81.32-.87h-.09s.06,0,.09,0Zm-7.25-87.61h-.02.02Z"/><path class="cls-2" d="m789.42,321.11c-2.98,0-22.45-12.59-32.41-19.47-11.32-7.82-30.68-22-33.21-29.1l-.06-.16v-.17h.98v-1.02l.76.76.2-.07c1.69,4.73,13.29,14.82,31.82,27.68,14.28,9.91,27.56,17.85,31.1,19.33.17-.84.57-1.46,1.17-1.86-3.66-6.54-34.67-35.79-55.56-54.69l1.34-1.48c5.61,5.07,54.83,49.76,56.48,56.44l.03.24v.33l-.2.29c-.23.3-.54.38-.7.42-.25.06-.67.17-.67,1.44,0,.55-.39,1-.94,1.1-.04,0-.08.01-.13.01Z"/><path class="cls-2" d="m715.42,291.07l-1.87-.72c.13-.32.26-.67.43-1.04l1.83.81c-.15.34-.28.66-.39.96Z"/><path class="cls-2" d="m706.96,331.9c-.28-.23-.39-.48-.43-.66-.14-.42-.63-1.92.19-10.79l1.99.18c-.68,7.39-.43,9.44-.27,10.01-.04-.09-.12-.22-.22-.3l-1.25,1.56Z"/><path class="cls-2" d="m792.21,331.34l-.78-.78-.77-.43.17-.26c.13-.14.25-.28.36-.41l1.52,1.3c-.1.11-.2.23-.31.35v.02s-.19.19-.19.19Zm-.78-.78l.07.07-.07-.07Z"/><polygon class="cls-2" points="786.39 413.95 786.02 413.53 786.76 412.85 786.58 411.88 786.69 411.86 786.86 412.76 787.49 412.18 787.5 412.19 786.86 412.77 787.05 413.82 786.39 413.95"/><path class="cls-2" d="m799.51,411.58l-.35-1.97,2.14-.38.12.67,1.08.07c0,.13,0,.21,0,.23v.56l-.54.39-2.45.43Z"/><path class="cls-2" d="m808.57,247.34h-.23l-.2-.1c-4.13-1.97-9.02-3.42-14.54-4.32l.32-1.97c5.61.91,10.62,2.39,14.87,4.39h.78v1.11s-.03.2-.03.2l-.97-.17v.86Zm-.73-.98h-.27.27Z"/><path class="cls-2" d="m786.01,242.1c-.24-.02-.48-.03-.71-.03h-.13s.08-2,.08-2h.13c.24.01.5.02.76.04l-.13,2Z"/><path class="cls-2" d="m784.39,242.03c-.94-.03-1.56-.03-1.79-.03l-.08-1,.06-1c.23,0,.88,0,1.87.03l-.07,2Zm-1.86-1.03v-1,1Z"/><path class="cls-2" d="m901.5,381.68l-2-.12c.02-.3,1.84-29.78,0-44.43-1.99-15.94-18.88-61.63-27.38-74.06-2.52-3.69-16.18-20.15-37-33.37-27.21-17.26-54.92-22.22-82.37-14.73-27.01,7.37-45.12,24-53.83,49.43-6.52,19.03-5.03,36.12-5.01,36.29l-1.99.19c-.02-.17-1.55-17.63,5.09-37.05,6.14-17.97,20.71-41.36,55.22-50.78,27.62-7.53,56.66-2.35,83.97,14.98,21.11,13.39,35.01,30.17,37.58,33.92,8.6,12.59,25.69,58.81,27.71,74.94,1.85,14.84.02,44.5,0,44.8Z"/><path class="cls-2" d="m104.2,320.73c-3.14-1.83-6.16-4.06-8.96-6.63l1.27-1.54,8.79,6.5-1.1,1.67Z"/><path class="cls-2" d="m98.17,316.78l-2.99-2.73c-6.24-5.69-11.46-12.92-15.53-21.47l-3.39-7.13,4.52,5.41c6.83-4.29,45.02-28.46,51.08-35.96l1.58,1.22c-22.29,30.01-37.71,53.92-36.65,56.85l1.38,3.81Zm-16.31-24.23c3.55,7.26,7.97,13.51,13.16,18.6.9-3.09,4.42-10.09,16.26-27.44,5.31-7.77,10.87-15.54,14.92-21.11-12.88,10.04-37.31,25.52-44.35,29.94Z"/><path class="cls-2" d="m130.99,253.43h-.11c-4.9-.56-47.82-5.63-58.57-13.86l.55-.72-.97-.07v-.59l.08-.04c.84-5.85,2.21-11.56,4.08-16.99l1.91.57c.02-.08,0-.13,0-.13.55,2.35,19.32,13.03,53,28.21l.59.27v.52s.45,1.8.45,1.8v1l-1.02.03Zm-57.02-15.13c8.69,6.05,37.86,10.85,55.28,12.92-3.34-1.52-15.1-6.9-26.62-12.63-16.67-8.3-23.02-12.44-25.37-14.7-1.47,4.64-2.57,9.48-3.29,14.41Z"/><path class="cls-2" d="m77.12,287.33l-1.95-6.31c-2.46-7.94-3.85-16.36-4.16-25.04l-.09-2.6,1.75,1.81c2.32,1.06,25.75.12,58.47-2.36l.96-.07.29.78c.16.5-.06,1.03-.53,1.27-1.97.78-45.87,18.22-54.73,26.35v6.18Zm-4.06-30.06c.36,7.48,1.56,14.76,3.57,21.67,8.61-6.92,36.34-18.62,48.75-23.68-37.48,2.74-48.73,2.56-52.31,2.01Zm58.46-2.47h-.12s.08,0,.12,0Z"/><path class="cls-2" d="m133.33,244.65h-.62l-.48-.64-25.13-61.47.86-.4c5.82-2.74,11.93-4.12,18.17-4.12h0s.02,0,.02,0v1h.13s.83-.11.83-.11l9.04,64.12v.35l-.42.54-2.41.75Zm-23.65-61.1l24.07,58.88.31-.1-8.8-62.31c-5.34.12-10.57,1.3-15.59,3.53Z"/><path class="cls-2" d="m129.47,326.89l-.42-.16c-.96.07-1.94.11-2.91.11-7.63,0-15-2.05-21.93-6.1l-3.19-1.86h3.09c10.44-19.9,29.76-57.93,30.06-63.08v-.59s4.04-1.89,4.04-1.89l1.03.92-.23.59c-.5,2.14-7.81,34.01-8.79,69.81l1.5-.12-2.24,2.39Zm-23.42-7.41c6.37,3.55,13.12,5.36,20.09,5.36.69,0,1.39-.02,2.08-.06.85-31.94,6.73-60.82,8.42-68.53l-.56.26c-1.7,8.67-25.56,54.45-30.03,62.97Z"/><path class="cls-2" d="m138.83,324.7l.04-1.52c.07-2.49,1.69-61.15-.46-70.25l-.19-.82,1.6-.71.53.91c.16.42,16.48,41.85,22.02,51.31l.31.53-.33.52c-5.96,9.33-13.6,16.06-22.11,19.46l-1.41.57Zm2.29-65.06c.92,16.7.04,52.88-.2,62.03,7.4-3.34,14.09-9.38,19.43-17.57-4.42-7.9-14.45-32.54-19.23-44.46Z"/><path class="cls-2" d="m137.52,244.74l-1.31-.48v-.78s0-.06,0-.06l7.97-61.29,1.28.68c5.84,3.13,11.04,7.73,15.47,13.68l.37.49-23.31,47.24-.46.52Zm8.25-59.45l-6.83,52.52,20-40.61c-3.84-5.04-8.27-9.04-13.17-11.91Z"/><path class="cls-2" d="m139.23,248.4l-.9-1.5.77-.68c5.44-5.64,23.65-24.63,29.56-32.06l1.11-1.4.61,1.68c2.02,5.57,3.54,11.61,4.52,17.95l.12.77-35.78,15.24Zm29.84-31.6c-5.8,6.96-18.49,20.33-25.39,27.53l29.11-12.4c-.86-5.3-2.11-10.38-3.72-15.13Z"/><path class="cls-2" d="m170.59,287.25l-32-36.05.53-1.21h.75s.09,0,.09,0c1,.18,24.61,4.45,35.19,4.02l1.08-.04-.04,1.08c-.36,10.81-2.06,21.08-5.07,30.52l-.53,1.67Zm-28.21-34.8l27.36,30.83c2.54-8.49,4.02-17.64,4.42-27.23-9.05.13-25.27-2.48-31.78-3.59Z"/><path class="cls-2" d="m126.5,343c-35.01,0-63.5-41.05-63.5-91.5s28.49-91.5,63.5-91.5,63.5,41.05,63.5,91.5-28.49,91.5-63.5,91.5Zm0-181c-33.91,0-61.5,40.15-61.5,89.5s27.59,89.5,61.5,89.5,61.5-40.15,61.5-89.5-27.59-89.5-61.5-89.5Z"/><path class="cls-2" d="m135.17,256.84c-3.14,0-5.7-3.32-5.7-7.4s2.56-7.4,5.7-7.4,5.7,3.32,5.7,7.4-2.56,7.4-5.7,7.4Zm0-12.81c-2,0-3.7,2.47-3.7,5.4s1.69,5.4,3.7,5.4,3.7-2.47,3.7-5.4-1.69-5.4-3.7-5.4Z"/><path class="cls-2" d="m129.21,326.71h-.49l-.31-.39c-.14-.18-.22-.41-.22-.63.76-32.31,6.74-61.66,8.44-69.44l-.56.26c-1.75,8.91-26.92,57.05-30.36,63.6v.75h-1.44s-.23-.24-.23-.24l-8.95-6.66-.23-.28v-.2c-.42-1.29-.59-4.86,16.42-29.78,5.31-7.77,10.87-15.54,14.92-21.11-13.3,10.37-38.91,26.54-44.98,30.34l-.36.23h-.76l-.46-.54-.06-.2-4.34-11.16-.13-.15v-1.39s.6,0,.6,0c7.36-6.78,36.78-19.21,49.66-24.46-9,.65-17.72,1.21-25.05,1.61-27.38,1.49-28.46.37-29.04-.23l-.27-.28v-.38c-.06-1.18-.08-2.36-.08-3.55,0-1.74.04-3.49.13-5.2v-.02s.02-.41.02-.41c0,0,0-.02,0-.03v-.03c.04-.47.09-.94.12-1.39l.02-.18c.02-.21.03-.38.05-.55.12-1.33.25-2.58.35-3.58l.12-1.12c0-.09.02-.19.03-.27,0-.02,0-.08.01-.14l.09-1.31,1.03-.58.52.31c8.18,6.26,38.07,11.19,55.8,13.3-3.34-1.52-15.1-6.9-26.62-12.63-26.65-13.27-26.93-15.92-26.63-17.23v-.24l.11-.14c.08-.23.16-.47.26-.73.04-.11.09-.26.15-.41l.05-.13c.8-2.07,2.62-6.2,6.74-14.16l.07-.14v-.32l.29-.18c6.44-10.46,14.84-18.33,24.31-22.77l.95-.45,24.83,60.74.31-.1-8.93-63.3v-1l1.02-.03c.17,0,.44,0,.84,0h.5c.23.02.46.03.69.05.15,0,.39.02.62.03l1.46.12c.27.03.55.05.85.09.4.05.78.1,1.18.16.7.11,1.42.22,2.17.37,3.84.78,7.53,2.12,10.98,3.98l.61.33-7.11,54.67,21-42.63.98,1.31c3.82,5.13,7,11.17,9.46,17.95l.19.53-.35.44c-5.09,6.4-19.13,21.2-26.53,28.93l31.01-13.21.2,1.27c.91,5.84,1.38,12.01,1.38,18.33,0,1.59-.03,3.01-.08,4.34l-.04.92-.92.04c-8.3.34-24.12-2.37-33.59-4.19l29.66,33.2-.17.54c-2.26,7.11-5.21,13.53-8.77,19.09l-.88,1.38-.83-1.41c-4.24-7.25-14.64-32.79-19.53-45,.99,17.92-.1,58.28-.25,63.59l-.02.65-.6.25c-.54.22-1.08.42-1.62.61l-.11.03-9.3,1.94Zm-.06-2s-.09.01-.14.03l.14-.03Zm9.68-69.09c-1.25,5.57-7.68,35.49-8.6,68.86l7.81-1.66c.29-.1.57-.2.85-.31.17-6.44,1.38-53.03-.07-66.89Zm-42.07,57.11l7.62,5.64c10.5-20.02,29.51-57.48,29.8-62.59v-.59s4.04-1.89,4.04-1.89l.34.3c-.04-.25-.09-.47-.14-.68l-.19-.82.83-.38c-.16-.62-.03-1.5.04-1.66l.27-.58h.73s.71.13.71.13c15.13,2.94,26.9,4.49,33.42,4.41.03-1.03.05-2.13.05-3.33,0-5.76-.39-11.39-1.16-16.75l-33.87,14.43-.9-1.5.77-.68c5.34-5.54,22.96-23.92,29.21-31.62-2.15-5.81-4.84-11.04-8.03-15.58l-22.21,45.1-.55.62-1.31-.48v-.78s0-.06,0-.06l7.69-59.16c-3.1-1.6-6.4-2.76-9.81-3.46-.72-.14-1.4-.25-2.06-.35-.38-.05-.77-.1-1.15-.15-.26-.03-.53-.06-.8-.08l-1.42-.12c-.18-.02-.36-.03-.55-.03-.26-.02-.42-.03-.57-.03h-.24s8.88,62.98,8.88,62.98v.35l-.42.54-2.56.75h-.47l-.48-.64-24.37-59.61c-8.73,4.34-16.48,11.76-22.49,21.53v.08l-.17.2-.12.24c-4.08,7.88-5.87,11.94-6.65,13.96l-.05.14c-.05.12-.09.24-.13.36-.1.28-.18.52-.26.74.83,2.46,19.56,13.1,52.99,28.16l.59.27v.52s.45,1.8.45,1.8v.37h.09s.29.78.29.78c.16.5-.06,1.03-.53,1.27-1.95.78-45.3,17.99-54.56,26.19l3.76,9.69c7.53-4.74,44.82-28.38,50.8-35.78l1.58,1.22c-21.79,29.33-37.01,52.83-36.69,56.62Zm44.38-58.48c3.14,7.92,15.08,37.78,20.44,47.9,2.98-4.93,5.49-10.52,7.48-16.64l-27.92-31.25Zm-68.14,1.03c3.52.86,25.01,0,54.92-2.22-10.63-1.31-43.04-5.77-54.2-12.56l-.07.72c-.1,1-.22,2.24-.35,3.58-.02.21-.04.42-.06.63l-.02.2c-.02.31-.05.62-.08.94l.08.09-.12.42c-.1,1.79-.14,3.58-.14,5.35,0,.96.01,1.91.04,2.86Zm-.36-.12,58.9-.37h-.12s.08,0,.12,0Z"/><path class="cls-2" d="m131.47,248.09c-3.96,0-45.08-32.41-48.03-42.16l-.04-.29h.99v-1.02l.78.79.19-.06c2.82,9.33,38.8,36.54,45.25,40.32.14-.76.38-1.25.6-1.56-2.13-5.11-24.92-30.51-40.21-46.85l1.46-1.37c4.05,4.33,39.64,42.51,40.84,48.23l.02.21v.29l-.36.5c-.39.38-.48,1.23-.48,1.88,0,.55-.4,1-.94,1.09-.03,0-.05,0-.08,0Z"/><path class="cls-2" d="m133.41,256.17l-.82-.69-.82-.39.14-.24c.09-.12.18-.23.26-.34l1.62,1.17c-.07.1-.14.2-.22.3v.02s-.15.17-.15.17Z"/><path class="cls-2" d="m139,341.5v-2c.12,0,12.18-.01,29.94-1,2.38-.13,4.65-.19,6.84-.24,14.63-.35,25.2-.6,41.41-22.36l1.6,1.2c-16.8,22.54-28.35,22.82-42.97,23.17-2.18.05-4.43.11-6.78.24-17.82.99-29.94,1-30.06,1Z"/><path class="cls-2" d="m811,429.5h-17v-2h17c.12,0,12.18-.01,29.94-1,2.38-.13,4.65-.19,6.84-.24,14.63-.35,25.2-.6,41.41-22.36l1.6,1.2c-16.8,22.54-28.35,22.82-42.97,23.17-2.18.05-4.43.11-6.78.24-17.82.99-29.94,1-30.06,1Z"/><path class="cls-2" d="m63.71,283.03c-.15-.45-15.04-45.6,5.89-89.46,21.12-44.25,60.75-33.64,61.15-33.53l-.54,1.92c-.1-.03-9.72-2.66-21.71.03-11.04,2.48-26.43,10.11-37.09,32.43-20.59,43.13-5.95,87.51-5.8,87.95l-1.89.64Z"/><path class="cls-2" d="m59.33,229.66c-.08-.57-2.03-14.24,1.94-30.66,3.68-15.21,13.37-35.6,38.65-46.37,17.25-7.35,36.09-5.56,54.49,5.19,11.5,6.72,22.58,16.91,31.19,28.69,7.89,10.8,12.96,21.88,13.9,30.38l-1.99.22c-1.83-16.43-19.99-43.48-44.11-57.57-12.44-7.26-31.67-14.04-52.7-5.08-19.66,8.38-32.27,23.5-37.47,44.94-3.9,16.05-1.94,29.82-1.92,29.96l-1.98.29Z"/><path class="cls-2" d="m956.38,385.39c-29.14,0-52.19-1.28-60.23-3.75-.4-.12-1.09-.13-1.76-.14-1.3-.01-2.52-.03-3.22-.8-.23-.26-.49-.7-.43-1.37,2.04-21.32,1.03-54.3-15.42-90.37-13.27-29.11-36.36-51.41-65-62.8-29.26-11.63-55.92-9.06-79.24,7.66-30.64,21.96-37.62,56.05-38.08,80.77-.5,26.91,6.38,48.89,6.45,49.11l.47,1.49-489.77-61.61-3.59-9.21-5.13-13.45v-.18c-.02-22.18-3.91-54.54-22.34-82.73-10.99-16.81-22.06-24.21-22.17-24.28l1.1-1.67c.47.31,11.53,7.7,22.75,24.86,10.31,15.76,22.6,43.06,22.67,83.64l4.99,13.1,3.15,8.1,485.52,61.08c-1.53-5.42-6.53-25.01-6.11-48.21.46-25.21,7.59-59.96,38.92-82.42,23.92-17.14,51.22-19.79,81.14-7.89,29.12,11.58,52.59,34.25,66.08,63.83,9.17,20.11,19.32,52.26,15.61,91.26.35.11,1.16.11,1.67.12.81,0,1.65.02,2.33.23,14.15,4.35,75.99,4.93,135.03,1.26,72.03-4.48,119.47-13.73,126.89-24.76,18.26-27.11.92-42.82.17-43.48l-.57-.5.32-.68c17.68-37.32,17.06-68.76,17.05-69.08v-.31s10.01-15.73,10.01-15.73l1.69,1.07-9.69,15.22c.02,3.38-.3,33.52-16.93,69,6.7,6.37,14.61,23.32-.39,45.59-11.2,16.63-93.54,23.47-128.43,25.64-26.04,1.62-52.66,2.41-75.52,2.41Z"/><path class="cls-2" d="m723.12,192.68l-151.53-25.82q-89.92-15.78-246.06-28.82c-154.28-12.89-302.55-12.05-304.02-12.04v-2c1.47,0,149.82-.85,304.19,12.04q156.23,13.05,246.24,28.84l.74.13,150.78,25.69-.34,1.97Z"/><path class="cls-2" d="m483.46,137.01l-33-5.01c-.18-.01-.42-.1-.63-.25l-6.06-4.33c-.48-.34-.69-.92-.54-1.49.15-.57.62-.97,1.2-1.03l28.03-2.9h.19s33.27,3.61,33.27,3.61c.72.08,1.25.66,1.24,1.39s-.53,1.31-1.25,1.38l-25.3,2.62-.21-1.99,19.6-2.03-27.5-2.97-26.27,2.72,4.65,3.32,32.66,4.95,39.89-2.99.15,1.99-40.11,3.01Zm-32.47-6.88h0s0,0,0,0Zm-.3-.11h.08s-.05,0-.08,0Z"/><path class="cls-2" d="m935.38,280.78c-41.01,0-56.73-7.46-57.65-7.92l.89-1.79c.32.16,33.31,15.71,127.74,1.94l.29,1.98c-29.45,4.29-52.9,5.79-71.26,5.79Z"/><polygon class="cls-2" points="709.93 382.61 210.01 316.38 209.87 302.67 211.87 302.65 211.99 314.62 710.19 380.63 709.93 382.61"/><path class="cls-2" d="m148.71,114.81s-.07,0-.11,0l.1-1c2.1.21,16.42-10.01,24.9-16.51l.61.79c-2.25,1.73-21.95,16.71-25.5,16.71Z"/><rect class="cls-2" x="448.16" y="86.2" width="2" height="486.23" transform="translate(61.62 729.31) rotate(-82.15)"/><g><path class="cls-2" d="m910.18,237.06s-6.14,7.95-2.41,14.95l11.98,4.32s7.75-7.72,3.75-18.53"/><path class="cls-2" d="m920.01,257.48l-12.94-4.67-.18-.34c-3.99-7.48,2.23-15.68,2.5-16.03l1.58,1.22c-.06.07-5.49,7.27-2.49,13.53l10.98,3.96c1.51-1.75,6.33-8.28,3.1-17.01l1.88-.7c4.17,11.28-3.9,19.5-3.98,19.58l-.45.45Z"/></g><path class="cls-2" d="m975.6,326.61c-40.48,0-78.24-7.04-78.71-7.12l.37-1.96c.59.11,59.69,11.12,109.13,5.49l.23,1.99c-10.13,1.15-20.66,1.61-31.01,1.61Z"/><path class="cls-2" d="m970.2,347.72c-37.46,0-68.92-6.16-69.32-6.24l.39-1.96c.51.1,51.69,10.12,101.12,4.49l.23,1.99c-10.9,1.24-21.9,1.73-32.41,1.73Z"/></g></svg>