<?xml version="1.0" encoding="UTF-8"?><svg id="Layer_1" xmlns="http://www.w3.org/2000/svg" width="129" height="129" viewBox="0 0 129 129"><defs><style>.cls-1{fill:#003f67;}.cls-2{fill:#c46b05;}.cls-3{fill:#fff;stroke:#000;stroke-miterlimit:10;}</style></defs><circle class="cls-3" cx="64.5" cy="64.5" r="64"/><path class="cls-1" d="m55.02,75.98c0-5.47-.86-9.43-4.82-10.65v-1.87h16.9l4.37,20.23,18.59-20.23h13.03l-17.27,22.67,17,28.12-10.4.61-20.86-31.19-.03,1.34,1.31,29.85"/><path class="cls-2" d="m30.97,26.75c0-5.54-.79-9.6-4.9-10.86v-1.99h29.7c11.42,0,19.25,6.86,19.25,16.68s-7.83,16.53-19.25,16.53h-7.84l.41,9.63.37,8.56m2.51-40.7h-3.21v12.25h3.21c4.25,0,6.72-2.36,6.72-6.13s-2.46-6.13-6.72-6.13Z"/></svg>