<?xml version="1.0" encoding="UTF-8"?><svg id="forgrund" xmlns="http://www.w3.org/2000/svg" width="258.43" height="417.67" viewBox="0 0 258.43 417.67"><defs><style>.cls-1{fill:#fff;}.cls-2{fill:#8d5726;}.cls-3{fill:#cbcaca;}.cls-4{fill:#dca162;}.cls-5{fill:#a46928;}.cls-6{fill:#959595;}.cls-7{fill:#704f23;}.cls-8{fill:#808181;}.cls-9{fill:#3481c3;}.cls-10{fill:#847157;}.cls-11{fill:#5e5c5a;}</style></defs><g><path class="cls-5" d="m199.32,404.89s51.64,37.16,49.75-16.85c-1.74-49.95-178.88-290.05-164.52-291.7,0,0-54.25-42.64-41.65,19.74,5.95,29.47,66.69,97.87,107.08,161.88,40.39,64,60.43,123.6,49.33,126.93Z"/><g><path class="cls-8" d="m67.66,186.57c3.21,5.29,4.79,10.17,10.64,7.07l78.13-49.67s.06-.01.06-.03l62.54-10.11c-3.15-34.13-26.54-85.94-59.54-109.82l-46.45,48.6-82.75,29.32s-.06.03-.1.04c-3.46.88-11.15,4.68-7.95,9.95l45.42,74.65Z"/><path class="cls-3" d="m219.03,133.83l39.4-6.37-9.63-20.8-18.92-.15-11.59-9.02,20.97-8.52-39.26-63.5c-.07-.1-.11-.18-.16-.28-.9-1.71-11.08-19.32-17.42-25.19l-22.93,24.01c33,23.87,56.39,75.69,59.54,109.82Z"/></g><ellipse class="cls-1" cx="153.57" cy="79.55" rx="22.64" ry="24.16" transform="translate(9.85 175.76) rotate(-61.18)"/><ellipse class="cls-9" cx="165.27" cy="82.49" rx="11.13" ry="11.88" transform="translate(13.33 187.53) rotate(-61.18)"/><path class="cls-4" d="m135.33,214.67s-33.1-17.25-22.98-18.28c0,0,17.85,11.4,22.98,18.28Z"/><path class="cls-4" d="m191.21,321.92s-5.05-2.06-11.84-15.23c-2.54-4.92-11.6-12.25-11.65-20.36-.1-16.31,4.88,3.45,15.03,7.96,11.74,5.22,10.5,25.59,8.46,27.63Z"/><path class="cls-4" d="m247.04,404.81c-2.21,8.82-5.64,11.28-13.53,12.41-13.44,1.92-19.17-2.26-33.83-12.41,0,0,23.94-12.72,49.62-10.15"/><path class="cls-4" d="m224.15,385.87s-5.69-3.11-6.12-15.93c-.16-4.79,3.16-14.06.82-20.81-4.66-13.4,15.52,5.17,9.09,12.2-7.89,8.65-1.35,23.8-3.79,24.53Z"/><path class="cls-2" d="m188.65,268.07s-25.91-31.68-35.08-28.1c-9.16,3.57,21.8,17.67,35.08,28.1Z"/><path class="cls-2" d="m160.58,260.96s-4.45-40.68-14.08-42.69c-9.63-2,8.63,26.7,14.08,42.69Z"/><polygon class="cls-6" points="127.75 143.06 130.13 133.3 123.44 125.81 132.5 130.23 134.99 120.29 143.68 121.53 138.71 125.26 148.65 130.23 138.71 131.47 141.2 140.16 127.75 143.06"/><ellipse cx="173.73" cy="85.65" rx="3.38" ry="2.26" transform="translate(43.39 228.94) rotate(-73.95)"/><path d="m229.65,415.17c-2.87,0-5.9-.84-8.41-2.09-2.09-1.04-3.69-3.46-3.99-6.02-.23-1.98.36-3.67,1.66-4.75,2.61-2.18,10.96-2.32,13.54-.23,2.28,1.84,3.33,3.73,2.88,5.16-.26.82-1.1,1.83-3.68,2.01-.58.04-1.42.24-2.31.46-2.3.55-4.9,1.18-5.97-.1-1.24-1.49-.13-5.08,1.18-6.17.72-.6,2.18-.12,3.28.39,1.21.56,2.43,1.36,2.89,1.92l-.58.48c-.33-.4-1.37-1.14-2.63-1.72-1.37-.63-2.23-.7-2.49-.49-1.14.95-1.95,4.06-1.08,5.11.77.92,3.23.33,5.22-.15.92-.22,1.79-.43,2.43-.47,1.68-.12,2.75-.64,3.01-1.48.35-1.11-.63-2.74-2.63-4.35-2.34-1.89-10.22-1.75-12.59.22-1.1.92-1.6,2.37-1.4,4.09.27,2.32,1.71,4.5,3.58,5.44,4.45,2.23,10.59,3.1,14.25.05,4.23-3.52,4.21-7.9-.05-13.01l.58-.48c4.51,5.41,4.49,10.28-.05,14.06-1.82,1.52-4.18,2.14-6.66,2.14Z"/><polygon class="cls-11" points="53.4 115.35 55.91 110.65 51.15 102.95 59.35 111.43 68.49 109.69 70.78 117.32 65.82 114.65 65.51 124.73 57.91 113.1 54.48 122.38 53.4 115.35"/></g><g><path class="cls-7" d="m21.33,44.93h48.11c12.32,0,22.33,10,22.33,22.33v36.06H-.99v-36.06c0-12.32,10-22.33,22.33-22.33Z" transform="translate(-36.39 44.68) rotate(-38.72)"/><ellipse class="cls-10" cx="67" cy="102.26" rx="77.55" ry="8.16" transform="translate(-49.24 64.38) rotate(-38.72)"/></g></svg>