<?xml version="1.0" encoding="UTF-8"?><svg id="Layer_1" xmlns="http://www.w3.org/2000/svg" width="139" height="109" viewBox="0 0 139 109"><defs><style>.cls-1{fill:#fff;}.cls-2{fill:#1d1d1b;}.cls-3{fill:none;stroke:#1d1d1b;stroke-miterlimit:10;}</style></defs><path class="cls-3" d="M106.8,15.32H20.98c-2.2,0-3.98,1.78-3.98,3.98v54.71c0,2.2,1.78,3.98,3.98,3.98H106.8c2.2,0,3.98-1.78,3.98-3.98V19.3c0-2.2-1.78-3.98-3.98-3.98h-6.2"/><path class="cls-2" d="M94.32,70.32c-20.3,3.04-40.48,3.04-60.77,0-2.67-.57-5.05-2.59-6.07-5.12-3.9-12.42-3.9-24.08,0-36.51,1.02-2.53,3.4-4.54,6.07-5.11,20.3-3.04,40.48-3.04,60.77,0,2.67,.57,5.05,2.59,6.07,5.11,3.9,12.43,3.9,24.09,0,36.51-1.02,2.53-3.4,4.54-6.07,5.11Z"/><path class="cls-3" d="M20.98,15.32l15.44-3.77c1.52-.37,3.07-.56,4.63-.56H112.9c1.72,0,3.12,1.4,3.12,3.12v52.8c0,1.15-.39,2.26-1.1,3.15l-5.57,6.99"/><g><path class="cls-1" d="M37.2,44.03h-2.01v-1.01h-1.01v-1.01h-1.01v-1.01h-1.01v3.02h-2.01v-7.04h2.01v1.01h1.01v1.01h1.01v1.01h1.01v-3.02h2.01v7.04Z"/><path class="cls-1" d="M45.02,38h-2.01v5.03h2.01v1.01h-6.03v-1.01h2.01v-5.03h-2.01v-1.01h6.03v1.01Z"/><path class="cls-1" d="M53.85,44.03h-2.01v-1.01h-1.01v-1.01h-1.01v-1.01h-1.01v3.02h-2.01v-7.04h2.01v1.01h1.01v1.01h1.01v1.01h1.01v-3.02h2.01v7.04Z"/><path class="cls-1" d="M61.67,38h-2.01v6.03h-2.01v-6.03h-2.01v-1.01h6.03v1.01Z"/><path class="cls-1" d="M70.5,44.03h-7.04v-7.04h7.04v1.01h-5.03v2.01h4.02v1.01h-4.02v2.01h5.03v1.01Z"/><path class="cls-1" d="M78.82,44.03h-2.01v-1.01h-1.01v-1.01h-1.01v-1.01h-1.01v3.02h-2.01v-7.04h2.01v1.01h1.01v1.01h1.01v1.01h1.01v-3.02h2.01v7.04Z"/><path class="cls-1" d="M87.15,42.02h-1.01v1.01h-1.01v1.01h-5.03v-7.04h5.03v1.01h1.01v1.01h1.01v3.02Zm-2.01,0v-3.02h-1.01v-1.01h-2.01v5.03h2.01v-1.01h1.01Z"/><path class="cls-1" d="M95.47,43.03h-1.01v1.01h-5.03v-1.01h-1.01v-5.03h1.01v-1.01h5.03v1.01h1.01v5.03Zm-2.01,0v-5.03h-3.02v5.03h3.02Z"/><path class="cls-1" d="M37.2,53.08h-1.01v1.01h-4.02v2.01h-2.01v-7.04h6.03v1.01h1.01v3.02Zm-2.01,0v-3.02h-3.02v3.02h3.02Z"/><path class="cls-1" d="M45.52,55.09h-1.01v1.01h-5.03v-1.01h-1.01v-6.03h2.01v6.03h3.02v-6.03h2.01v6.03Z"/><path class="cls-1" d="M53.85,55.09h-1.01v1.01h-5.03v-1.01h-1.01v-1.01h2.01v1.01h3.02v-2.01h-4.02v-1.01h-1.01v-2.01h1.01v-1.01h4.02v1.01h1.01v1.01h-2.01v-1.01h-2.01v2.01h4.02v1.01h1.01v2.01Z"/><path class="cls-1" d="M62.17,56.1h-2.01v-3.02h-3.02v3.02h-2.01v-7.04h2.01v3.02h3.02v-3.02h2.01v7.04Z"/><path class="cls-1" d="M70.5,56.1h-7.04v-7.04h7.04v1.01h-5.03v2.01h4.02v1.01h-4.02v2.01h5.03v1.01Z"/><path class="cls-1" d="M78.82,56.1h-3.02v-1.01h-1.01v-1.01h-1.01v2.01h-2.01v-7.04h6.03v1.01h1.01v3.02h-2.01v1.01h1.01v1.01h1.01v1.01Zm-2.01-4.02v-2.01h-3.02v3.02h2.01v-1.01h1.01Z"/><path class="cls-1" d="M87.15,56.1h-7.04v-7.04h7.04v1.01h-5.03v2.01h4.02v1.01h-4.02v2.01h5.03v1.01Z"/><path class="cls-1" d="M95.47,56.1h-2.01v-1.01h-1.01v-1.01h-1.01v-1.01h-1.01v3.02h-2.01v-7.04h2.01v1.01h1.01v1.01h1.01v1.01h1.01v-3.02h2.01v7.04Z"/></g><path class="cls-3" d="M109.28,85.31l-5.73-2.08c-1.7-.62-3.94,.25-5.01,1.94l-6.01,9.49c-1.07,1.69-.56,3.56,1.14,4.17l5.73,2.08c1.7,.62,3.94-.25,5.01-1.94l6.01-9.49c1.07-1.69,.56-3.56-1.14-4.17Z"/><path class="cls-3" d="M91.97,97.19v3.37c0,1.44,.92,2.71,2.28,3.17l5.88,1.97c1.48,.5,3.11-.07,3.97-1.37l5.97-9.07c.59-.89,.9-1.94,.9-3.01v-4.69"/><polyline class="cls-3" points="105.96 84.11 101.65 91 107.66 93.84 96.13 88.97"/><g><path class="cls-2" d="M46.01,62.57h-.43v.43h-1.71v.86h-.86v-2.99h2.57v.43h.43v1.28Zm-.86,0v-1.28h-1.28v1.28h1.28Z"/><path class="cls-2" d="M49.55,63.85h-1.28v-.43h-.43v-.43h-.43v.86h-.86v-2.99h2.57v.43h.43v1.28h-.86v.43h.43v.43h.43v.43Zm-.86-1.71v-.86h-1.28v1.28h.86v-.43h.43Z"/><path class="cls-2" d="M53.1,63.85h-2.99v-2.99h2.99v.43h-2.14v.86h1.71v.43h-1.71v.86h2.14v.43Z"/><path class="cls-2" d="M56.64,63.42h-.43v.43h-2.14v-.43h-.43v-.43h.86v.43h1.28v-.86h-1.71v-.43h-.43v-.86h.43v-.43h1.71v.43h.43v.43h-.86v-.43h-.86v.86h1.71v.43h.43v.86Z"/><path class="cls-2" d="M60.18,63.42h-.43v.43h-2.14v-.43h-.43v-.43h.86v.43h1.28v-.86h-1.71v-.43h-.43v-.86h.43v-.43h1.71v.43h.43v.43h-.86v-.43h-.86v.86h1.71v.43h.43v.86Z"/><path class="cls-2" d="M67.26,63.42h-.43v.43h-2.14v-.43h-.43v-.43h.86v.43h1.28v-.86h-1.71v-.43h-.43v-.86h.43v-.43h1.71v.43h.43v.43h-.86v-.43h-.86v.86h1.71v.43h.43v.86Z"/><path class="cls-2" d="M70.16,61.28h-.86v2.57h-.86v-2.57h-.86v-.43h2.57v.43Z"/><path class="cls-2" d="M73.7,63.85h-.86v-.86h-1.28v.86h-.86v-2.14h.43v-.43h.43v-.43h1.28v.43h.43v.43h.43v2.14Zm-.86-1.28v-.86h-.43v-.43h-.43v.43h-.43v.86h1.28Z"/><path class="cls-2" d="M77.25,63.85h-1.28v-.43h-.43v-.43h-.43v.86h-.86v-2.99h2.57v.43h.43v1.28h-.86v.43h.43v.43h.43v.43Zm-.86-1.71v-.86h-1.28v1.28h.86v-.43h.43Z"/><path class="cls-2" d="M80.57,61.28h-.86v2.57h-.86v-2.57h-.86v-.43h2.57v.43Z"/></g><path class="cls-3" d="M115.97,60.91c2.61,.94,5.25,1.9,7.57,3.43s4.33,3.7,5.1,6.37,.1,5.85-2.07,7.58c-1.68,1.35-4.28,2.02-4.74,4.12-.39,1.77,1.07,3.45,1.15,5.26,.11,2.58-2.71,4.49-5.28,4.41s-2.43-2.66-6.46-2.58"/></svg>