<?xml version="1.0" encoding="utf-8"?>
<!-- Generator: Adobe Illustrator 27.1.1, SVG Export Plug-In . SVG Version: 6.00 Build 0)  -->
<svg version="1.1" id="Layer_1" xmlns="http://www.w3.org/2000/svg" xmlns:xlink="http://www.w3.org/1999/xlink" x="0px" y="0px"
	 viewBox="0 0 139 109" style="enable-background:new 0 0 139 109;" xml:space="preserve">
<style type="text/css">
	.st0{fill:none;stroke:#FFFFFF;stroke-width:0.5;stroke-miterlimit:10;}
	.st1{fill:#1D1D1B;}
	.st2{fill:#FFFFFF;}
</style>
<path class="st0" d="M106.8,15.3H21c-2.2,0-4,1.8-4,4V74c0,2.2,1.8,4,4,4h85.8c2.2,0,4-1.8,4-4V19.3C110.8,17.1,109,15.3,106.8,15.3
	h-6.2"/>
<path class="st1" d="M94.3,70.3c-20.3,3-40.5,3-60.8,0c-2.7-0.6-5-2.6-6.1-5.1c-3.9-12.4-3.9-24.1,0-36.5c1-2.5,3.4-4.5,6.1-5.1
	c20.3-3,40.5-3,60.8,0c2.7,0.6,5.1,2.6,6.1,5.1c3.9,12.4,3.9,24.1,0,36.5C99.4,67.7,97,69.7,94.3,70.3L94.3,70.3z"/>
<path class="st0" d="M21,15.3l15.4-3.8c1.5-0.4,3.1-0.6,4.6-0.6h71.9c1.7,0,3.1,1.4,3.1,3.1v52.8c0,1.2-0.4,2.3-1.1,3.2l-5.6,7"/>
<g>
	<path class="st2" d="M37.2,44h-2v-1h-1v-1h-1v-1h-1v3h-2v-7h2v1h1v1h1v1h1v-3h2V44z"/>
	<path class="st2" d="M45,38h-2v5h2v1h-6v-1h2v-5h-2v-1h6V38z"/>
	<path class="st2" d="M53.8,44h-2v-1h-1v-1h-1v-1h-1v3h-2v-7h2v1h1v1h1v1h1v-3h2V44z"/>
	<path class="st2" d="M61.7,38h-2v6h-2v-6h-2v-1h6V38z"/>
	<path class="st2" d="M70.5,44h-7v-7h7v1h-5v2h4v1h-4v2h5V44L70.5,44z"/>
	<path class="st2" d="M78.8,44h-2v-1h-1v-1h-1v-1h-1v3h-2v-7h2v1h1v1h1v1h1v-3h2V44z"/>
	<path class="st2" d="M87.2,42h-1v1h-1v1h-5v-7h5v1h1v1h1V42L87.2,42z M85.1,42v-3h-1v-1h-2v5h2v-1H85.1L85.1,42z"/>
	<path class="st2" d="M95.5,43h-1v1h-5v-1h-1v-5h1v-1h5v1h1V43z M93.5,43v-5h-3v5H93.5z"/>
	<path class="st2" d="M37.2,53.1h-1v1h-4v2h-2v-7h6v1h1V53.1L37.2,53.1z M35.2,53.1v-3h-3v3H35.2z"/>
	<path class="st2" d="M45.5,55.1h-1v1h-5v-1h-1v-6h2v6h3v-6h2V55.1L45.5,55.1z"/>
	<path class="st2" d="M53.8,55.1h-1v1h-5v-1h-1v-1h2v1h3v-2h-4v-1h-1v-2h1v-1h4v1h1v1h-2v-1h-2v2h4v1h1
		C53.9,53.1,53.9,55.1,53.8,55.1z"/>
	<path class="st2" d="M62.2,56.1h-2v-3h-3v3h-2v-7h2v3h3v-3h2V56.1z"/>
	<path class="st2" d="M70.5,56.1h-7v-7h7v1h-5v2h4v1h-4v2h5V56.1L70.5,56.1z"/>
	<path class="st2" d="M78.8,56.1h-3v-1h-1v-1h-1v2h-2v-7h6v1h1v3h-2v1h1v1h1V56.1L78.8,56.1z M76.8,52.1v-2h-3v3h2v-1H76.8z"/>
	<path class="st2" d="M87.2,56.1h-7v-7h7v1h-5v2h4v1h-4v2h5V56.1L87.2,56.1z"/>
	<path class="st2" d="M95.5,56.1h-2v-1h-1v-1h-1v-1h-1v3h-2v-7h2v1h1v1h1v1h1v-3h2V56.1z"/>
</g>
<path class="st0" d="M109.3,85.3l-5.7-2.1c-1.7-0.6-3.9,0.2-5,1.9l-6,9.5c-1.1,1.7-0.6,3.6,1.1,4.2l5.7,2.1c1.7,0.6,3.9-0.2,5-1.9
	l6-9.5C111.5,87.8,111,85.9,109.3,85.3z"/>
<path class="st0" d="M92,97.2v3.4c0,1.4,0.9,2.7,2.3,3.2l5.9,2c1.5,0.5,3.1-0.1,4-1.4l6-9.1c0.6-0.9,0.9-1.9,0.9-3v-4.7"/>
<polyline class="st0" points="106,84.1 101.7,91 107.7,93.8 96.1,89 "/>
<path class="st0" d="M116,60.9c2.6,0.9,5.2,1.9,7.6,3.4c2.3,1.5,4.3,3.7,5.1,6.4c0.8,2.7,0.1,5.8-2.1,7.6c-1.7,1.3-4.3,2-4.7,4.1
	c-0.4,1.8,1.1,3.4,1.2,5.3c0.1,2.6-2.7,4.5-5.3,4.4s-2.4-2.7-6.5-2.6"/>
</svg>
